<svg width="29" height="18" viewBox="0 0 29 18" fill="none" xmlns="http://www.w3.org/2000/svg">
<path fill-rule="evenodd" clip-rule="evenodd" d="M4.53125 13.5C4.53125 13.3508 4.62673 13.2077 4.79668 13.1023C4.96664 12.9968 5.19715 12.9375 5.4375 12.9375H23.5625C23.8029 12.9375 24.0334 12.9968 24.2033 13.1023C24.3733 13.2077 24.4688 13.3508 24.4688 13.5C24.4688 13.6492 24.3733 13.7923 24.2033 13.8977C24.0334 14.0032 23.8029 14.0625 23.5625 14.0625H14.5H5.4375C5.19715 14.0625 4.96664 14.0032 4.79668 13.8977C4.62673 13.7923 4.53125 13.6492 4.53125 13.5ZM4.53125 9C4.53125 8.85082 4.62673 8.70774 4.79668 8.60225C4.96664 8.49676 5.19715 8.4375 5.4375 8.4375H23.5625C23.8029 8.4375 24.0334 8.49676 24.2033 8.60225C24.3733 8.70774 24.4688 8.85082 24.4688 9C24.4688 9.14918 24.3733 9.29226 24.2033 9.39775C24.0334 9.50324 23.8029 9.5625 23.5625 9.5625H5.4375C5.19715 9.5625 4.96664 9.50324 4.79668 9.39775C4.62673 9.29226 4.53125 9.14918 4.53125 9ZM4.53125 4.5C4.53125 4.35082 4.62673 4.20774 4.79668 4.10225C4.96664 3.99676 5.19715 3.9375 5.4375 3.9375H23.5625C23.8029 3.9375 24.0334 3.99676 24.2033 4.10225C24.3733 4.20774 24.4688 4.35082 24.4688 4.5C24.4688 4.64918 24.3733 4.79226 24.2033 4.89775C24.0334 5.00324 23.8029 5.0625 23.5625 5.0625H5.4375C5.19715 5.0625 4.96664 5.00324 4.79668 4.89775C4.62673 4.79226 4.53125 4.64918 4.53125 4.5Z" fill="black" stroke="black"/>
</svg>
